<mxfile host="app.diagrams.net" modified="2021-08-01T22:26:00.442Z" agent="5.0 (Windows NT 10.0; Win64; x64) AppleWebKit/537.36 (KHTML, like Gecko) Chrome/91.0.4472.164 Safari/537.36 OPR/77.0.4054.275" etag="q5QpVJJQ8Y5Jb75zEJ6U" version="14.9.3" type="github">
  <diagram id="C5RBs43oDa-KdzZeNtuy" name="Page-1">
    <mxGraphModel dx="1662" dy="2082" grid="1" gridSize="10" guides="1" tooltips="1" connect="1" arrows="1" fold="1" page="1" pageScale="1" pageWidth="827" pageHeight="1169" math="0" shadow="0">
      <root>
        <mxCell id="WIyWlLk6GJQsqaUBKTNV-0" />
        <mxCell id="WIyWlLk6GJQsqaUBKTNV-1" parent="WIyWlLk6GJQsqaUBKTNV-0" />
        <mxCell id="WIyWlLk6GJQsqaUBKTNV-3" value="Bắt đầu" style="rounded=1;whiteSpace=wrap;html=1;fontSize=12;glass=0;strokeWidth=1;shadow=0;" parent="WIyWlLk6GJQsqaUBKTNV-1" vertex="1">
          <mxGeometry x="338.75" y="-100" width="120" height="40" as="geometry" />
        </mxCell>
        <mxCell id="gWCB7NlJTMs1TYTA7h7S-0" value="Khởi tạo các module:&amp;nbsp;&lt;br&gt;GPS, RF, SIM, La bàn" style="rounded=0;whiteSpace=wrap;html=1;" vertex="1" parent="WIyWlLk6GJQsqaUBKTNV-1">
          <mxGeometry x="320" y="-40" width="157.5" height="60" as="geometry" />
        </mxCell>
        <mxCell id="gWCB7NlJTMs1TYTA7h7S-43" style="edgeStyle=orthogonalEdgeStyle;rounded=0;orthogonalLoop=1;jettySize=auto;html=1;exitX=0.5;exitY=1;exitDx=0;exitDy=0;entryX=0.5;entryY=0;entryDx=0;entryDy=0;" edge="1" parent="WIyWlLk6GJQsqaUBKTNV-1" source="gWCB7NlJTMs1TYTA7h7S-3" target="gWCB7NlJTMs1TYTA7h7S-42">
          <mxGeometry relative="1" as="geometry" />
        </mxCell>
        <mxCell id="gWCB7NlJTMs1TYTA7h7S-3" value="User đã nhận?" style="rhombus;whiteSpace=wrap;html=1;" vertex="1" parent="WIyWlLk6GJQsqaUBKTNV-1">
          <mxGeometry x="338.75" y="370" width="120" height="80" as="geometry" />
        </mxCell>
        <mxCell id="gWCB7NlJTMs1TYTA7h7S-4" value="Lấy giá trị kinh độ, vĩ độ hiện tại và gửi về người dùng" style="rounded=0;whiteSpace=wrap;html=1;" vertex="1" parent="WIyWlLk6GJQsqaUBKTNV-1">
          <mxGeometry x="318.75" y="285" width="160" height="60" as="geometry" />
        </mxCell>
        <mxCell id="gWCB7NlJTMs1TYTA7h7S-13" value="" style="endArrow=classic;html=1;exitX=0;exitY=0.5;exitDx=0;exitDy=0;entryX=0;entryY=0.5;entryDx=0;entryDy=0;" edge="1" parent="WIyWlLk6GJQsqaUBKTNV-1" source="gWCB7NlJTMs1TYTA7h7S-3" target="gWCB7NlJTMs1TYTA7h7S-4">
          <mxGeometry width="50" height="50" relative="1" as="geometry">
            <mxPoint x="390" y="365" as="sourcePoint" />
            <mxPoint x="440" y="315" as="targetPoint" />
            <Array as="points">
              <mxPoint x="270" y="410" />
              <mxPoint x="270" y="360" />
              <mxPoint x="270" y="315" />
            </Array>
          </mxGeometry>
        </mxCell>
        <mxCell id="gWCB7NlJTMs1TYTA7h7S-14" value="" style="endArrow=classic;html=1;exitX=0.5;exitY=1;exitDx=0;exitDy=0;" edge="1" parent="WIyWlLk6GJQsqaUBKTNV-1" source="WIyWlLk6GJQsqaUBKTNV-3" target="gWCB7NlJTMs1TYTA7h7S-0">
          <mxGeometry width="50" height="50" relative="1" as="geometry">
            <mxPoint x="390" y="120" as="sourcePoint" />
            <mxPoint x="440" y="70" as="targetPoint" />
          </mxGeometry>
        </mxCell>
        <mxCell id="gWCB7NlJTMs1TYTA7h7S-16" value="" style="endArrow=classic;html=1;exitX=0.5;exitY=1;exitDx=0;exitDy=0;entryX=0.5;entryY=0;entryDx=0;entryDy=0;" edge="1" parent="WIyWlLk6GJQsqaUBKTNV-1" source="gWCB7NlJTMs1TYTA7h7S-4" target="gWCB7NlJTMs1TYTA7h7S-3">
          <mxGeometry width="50" height="50" relative="1" as="geometry">
            <mxPoint x="420" y="145" as="sourcePoint" />
            <mxPoint x="420" y="195" as="targetPoint" />
          </mxGeometry>
        </mxCell>
        <mxCell id="gWCB7NlJTMs1TYTA7h7S-33" style="edgeStyle=orthogonalEdgeStyle;rounded=0;orthogonalLoop=1;jettySize=auto;html=1;exitX=1;exitY=0.5;exitDx=0;exitDy=0;entryX=0;entryY=0.5;entryDx=0;entryDy=0;" edge="1" parent="WIyWlLk6GJQsqaUBKTNV-1" source="gWCB7NlJTMs1TYTA7h7S-20" target="gWCB7NlJTMs1TYTA7h7S-26">
          <mxGeometry relative="1" as="geometry" />
        </mxCell>
        <mxCell id="gWCB7NlJTMs1TYTA7h7S-20" value="Auto mode?" style="rhombus;whiteSpace=wrap;html=1;" vertex="1" parent="WIyWlLk6GJQsqaUBKTNV-1">
          <mxGeometry x="315" y="160" width="170" height="80" as="geometry" />
        </mxCell>
        <mxCell id="gWCB7NlJTMs1TYTA7h7S-22" value="" style="endArrow=classic;html=1;exitX=0.5;exitY=1;exitDx=0;exitDy=0;entryX=0.5;entryY=0;entryDx=0;entryDy=0;" edge="1" parent="WIyWlLk6GJQsqaUBKTNV-1" source="gWCB7NlJTMs1TYTA7h7S-20" target="gWCB7NlJTMs1TYTA7h7S-4">
          <mxGeometry width="50" height="50" relative="1" as="geometry">
            <mxPoint x="390" y="230" as="sourcePoint" />
            <mxPoint x="440" y="180" as="targetPoint" />
          </mxGeometry>
        </mxCell>
        <mxCell id="gWCB7NlJTMs1TYTA7h7S-23" value="True" style="text;html=1;strokeColor=none;fillColor=none;align=center;verticalAlign=middle;whiteSpace=wrap;rounded=0;" vertex="1" parent="WIyWlLk6GJQsqaUBKTNV-1">
          <mxGeometry x="400" y="240" width="40" height="20" as="geometry" />
        </mxCell>
        <mxCell id="gWCB7NlJTMs1TYTA7h7S-34" style="edgeStyle=orthogonalEdgeStyle;rounded=0;orthogonalLoop=1;jettySize=auto;html=1;exitX=1;exitY=0.5;exitDx=0;exitDy=0;entryX=0;entryY=0.5;entryDx=0;entryDy=0;" edge="1" parent="WIyWlLk6GJQsqaUBKTNV-1" source="gWCB7NlJTMs1TYTA7h7S-26" target="gWCB7NlJTMs1TYTA7h7S-30">
          <mxGeometry relative="1" as="geometry" />
        </mxCell>
        <mxCell id="gWCB7NlJTMs1TYTA7h7S-26" value="Nhận lệnh điều khiển từ user" style="rounded=0;whiteSpace=wrap;html=1;" vertex="1" parent="WIyWlLk6GJQsqaUBKTNV-1">
          <mxGeometry x="530" y="170" width="120" height="60" as="geometry" />
        </mxCell>
        <mxCell id="gWCB7NlJTMs1TYTA7h7S-27" value="Khởi tạo ngoại vi:&lt;br&gt;Ngắt UART, Timer và Ngắt Timer" style="rounded=0;whiteSpace=wrap;html=1;" vertex="1" parent="WIyWlLk6GJQsqaUBKTNV-1">
          <mxGeometry x="320" y="50" width="160" height="60" as="geometry" />
        </mxCell>
        <mxCell id="gWCB7NlJTMs1TYTA7h7S-28" value="" style="endArrow=classic;html=1;exitX=0.5;exitY=1;exitDx=0;exitDy=0;entryX=0.5;entryY=0;entryDx=0;entryDy=0;" edge="1" parent="WIyWlLk6GJQsqaUBKTNV-1" source="gWCB7NlJTMs1TYTA7h7S-0" target="gWCB7NlJTMs1TYTA7h7S-27">
          <mxGeometry width="50" height="50" relative="1" as="geometry">
            <mxPoint x="390" y="110" as="sourcePoint" />
            <mxPoint x="440" y="60" as="targetPoint" />
          </mxGeometry>
        </mxCell>
        <mxCell id="gWCB7NlJTMs1TYTA7h7S-29" value="" style="endArrow=classic;html=1;exitX=0.5;exitY=1;exitDx=0;exitDy=0;entryX=0.5;entryY=0;entryDx=0;entryDy=0;" edge="1" parent="WIyWlLk6GJQsqaUBKTNV-1" source="gWCB7NlJTMs1TYTA7h7S-27" target="gWCB7NlJTMs1TYTA7h7S-20">
          <mxGeometry width="50" height="50" relative="1" as="geometry">
            <mxPoint x="390" y="210" as="sourcePoint" />
            <mxPoint x="440" y="160" as="targetPoint" />
          </mxGeometry>
        </mxCell>
        <mxCell id="gWCB7NlJTMs1TYTA7h7S-30" value="Điều khiển PID tốc độ cho động cơ" style="rounded=0;whiteSpace=wrap;html=1;" vertex="1" parent="WIyWlLk6GJQsqaUBKTNV-1">
          <mxGeometry x="680" y="170" width="120" height="60" as="geometry" />
        </mxCell>
        <mxCell id="gWCB7NlJTMs1TYTA7h7S-39" value="" style="endArrow=classic;html=1;exitX=1;exitY=0.5;exitDx=0;exitDy=0;" edge="1" parent="WIyWlLk6GJQsqaUBKTNV-1" source="gWCB7NlJTMs1TYTA7h7S-30">
          <mxGeometry width="50" height="50" relative="1" as="geometry">
            <mxPoint x="390" y="200" as="sourcePoint" />
            <mxPoint x="400" y="130" as="targetPoint" />
            <Array as="points">
              <mxPoint x="820" y="200" />
              <mxPoint x="820" y="130" />
            </Array>
          </mxGeometry>
        </mxCell>
        <mxCell id="gWCB7NlJTMs1TYTA7h7S-40" value="False" style="text;html=1;strokeColor=none;fillColor=none;align=center;verticalAlign=middle;whiteSpace=wrap;rounded=0;" vertex="1" parent="WIyWlLk6GJQsqaUBKTNV-1">
          <mxGeometry x="478.75" y="180" width="40" height="20" as="geometry" />
        </mxCell>
        <mxCell id="gWCB7NlJTMs1TYTA7h7S-50" style="edgeStyle=orthogonalEdgeStyle;rounded=0;orthogonalLoop=1;jettySize=auto;html=1;exitX=0.5;exitY=1;exitDx=0;exitDy=0;entryX=0.5;entryY=0;entryDx=0;entryDy=0;" edge="1" parent="WIyWlLk6GJQsqaUBKTNV-1" source="gWCB7NlJTMs1TYTA7h7S-42" target="gWCB7NlJTMs1TYTA7h7S-49">
          <mxGeometry relative="1" as="geometry" />
        </mxCell>
        <mxCell id="gWCB7NlJTMs1TYTA7h7S-42" value="Nhận dữ liệu quãng đường&lt;br&gt;&amp;nbsp;và góc đi từ user" style="rhombus;whiteSpace=wrap;html=1;" vertex="1" parent="WIyWlLk6GJQsqaUBKTNV-1">
          <mxGeometry x="278.75" y="510" width="240" height="80" as="geometry" />
        </mxCell>
        <mxCell id="gWCB7NlJTMs1TYTA7h7S-44" value="Fasle" style="text;html=1;strokeColor=none;fillColor=none;align=center;verticalAlign=middle;whiteSpace=wrap;rounded=0;" vertex="1" parent="WIyWlLk6GJQsqaUBKTNV-1">
          <mxGeometry x="300" y="390" width="40" height="20" as="geometry" />
        </mxCell>
        <mxCell id="gWCB7NlJTMs1TYTA7h7S-45" value="True" style="text;html=1;strokeColor=none;fillColor=none;align=center;verticalAlign=middle;whiteSpace=wrap;rounded=0;" vertex="1" parent="WIyWlLk6GJQsqaUBKTNV-1">
          <mxGeometry x="410" y="475" width="40" height="20" as="geometry" />
        </mxCell>
        <mxCell id="gWCB7NlJTMs1TYTA7h7S-47" value="" style="endArrow=classic;html=1;exitX=0;exitY=0.5;exitDx=0;exitDy=0;" edge="1" parent="WIyWlLk6GJQsqaUBKTNV-1" source="gWCB7NlJTMs1TYTA7h7S-42">
          <mxGeometry width="50" height="50" relative="1" as="geometry">
            <mxPoint x="380" y="580" as="sourcePoint" />
            <mxPoint x="400" y="480" as="targetPoint" />
            <Array as="points">
              <mxPoint x="250" y="550" />
              <mxPoint x="250" y="510" />
              <mxPoint x="250" y="480" />
              <mxPoint x="320" y="480" />
            </Array>
          </mxGeometry>
        </mxCell>
        <mxCell id="gWCB7NlJTMs1TYTA7h7S-48" value="False" style="text;html=1;strokeColor=none;fillColor=none;align=center;verticalAlign=middle;whiteSpace=wrap;rounded=0;" vertex="1" parent="WIyWlLk6GJQsqaUBKTNV-1">
          <mxGeometry x="250" y="530" width="40" height="20" as="geometry" />
        </mxCell>
        <mxCell id="gWCB7NlJTMs1TYTA7h7S-49" value="Tính toàn PID tốc độ và góc và xuất PWM ra động cơ" style="rounded=0;whiteSpace=wrap;html=1;" vertex="1" parent="WIyWlLk6GJQsqaUBKTNV-1">
          <mxGeometry x="320" y="620" width="160" height="60" as="geometry" />
        </mxCell>
        <mxCell id="gWCB7NlJTMs1TYTA7h7S-52" value="" style="endArrow=classic;html=1;exitX=0.5;exitY=1;exitDx=0;exitDy=0;" edge="1" parent="WIyWlLk6GJQsqaUBKTNV-1" source="gWCB7NlJTMs1TYTA7h7S-49">
          <mxGeometry width="50" height="50" relative="1" as="geometry">
            <mxPoint x="300" y="760" as="sourcePoint" />
            <mxPoint x="400" y="130" as="targetPoint" />
            <Array as="points">
              <mxPoint x="400" y="720" />
              <mxPoint x="200" y="720" />
              <mxPoint x="190" y="130" />
            </Array>
          </mxGeometry>
        </mxCell>
        <mxCell id="gWCB7NlJTMs1TYTA7h7S-72" style="edgeStyle=orthogonalEdgeStyle;rounded=0;orthogonalLoop=1;jettySize=auto;html=1;exitX=0.5;exitY=1;exitDx=0;exitDy=0;entryX=0.5;entryY=0;entryDx=0;entryDy=0;" edge="1" parent="WIyWlLk6GJQsqaUBKTNV-1" source="gWCB7NlJTMs1TYTA7h7S-53" target="gWCB7NlJTMs1TYTA7h7S-54">
          <mxGeometry relative="1" as="geometry" />
        </mxCell>
        <mxCell id="gWCB7NlJTMs1TYTA7h7S-53" value="Ngắt UART" style="rounded=0;whiteSpace=wrap;html=1;" vertex="1" parent="WIyWlLk6GJQsqaUBKTNV-1">
          <mxGeometry x="670" y="300" width="120" height="60" as="geometry" />
        </mxCell>
        <mxCell id="gWCB7NlJTMs1TYTA7h7S-58" style="edgeStyle=orthogonalEdgeStyle;rounded=0;orthogonalLoop=1;jettySize=auto;html=1;exitX=0.5;exitY=1;exitDx=0;exitDy=0;entryX=0.5;entryY=0;entryDx=0;entryDy=0;" edge="1" parent="WIyWlLk6GJQsqaUBKTNV-1" source="gWCB7NlJTMs1TYTA7h7S-54" target="gWCB7NlJTMs1TYTA7h7S-55">
          <mxGeometry relative="1" as="geometry" />
        </mxCell>
        <mxCell id="gWCB7NlJTMs1TYTA7h7S-54" value="Switch&amp;nbsp;" style="rounded=0;whiteSpace=wrap;html=1;" vertex="1" parent="WIyWlLk6GJQsqaUBKTNV-1">
          <mxGeometry x="670" y="380" width="120" height="60" as="geometry" />
        </mxCell>
        <mxCell id="gWCB7NlJTMs1TYTA7h7S-59" style="edgeStyle=orthogonalEdgeStyle;rounded=0;orthogonalLoop=1;jettySize=auto;html=1;exitX=0.5;exitY=1;exitDx=0;exitDy=0;entryX=0.5;entryY=0;entryDx=0;entryDy=0;" edge="1" parent="WIyWlLk6GJQsqaUBKTNV-1" source="gWCB7NlJTMs1TYTA7h7S-55" target="gWCB7NlJTMs1TYTA7h7S-56">
          <mxGeometry relative="1" as="geometry" />
        </mxCell>
        <mxCell id="gWCB7NlJTMs1TYTA7h7S-64" style="edgeStyle=orthogonalEdgeStyle;rounded=0;orthogonalLoop=1;jettySize=auto;html=1;exitX=1;exitY=0.5;exitDx=0;exitDy=0;entryX=0;entryY=0.5;entryDx=0;entryDy=0;" edge="1" parent="WIyWlLk6GJQsqaUBKTNV-1" source="gWCB7NlJTMs1TYTA7h7S-55" target="gWCB7NlJTMs1TYTA7h7S-61">
          <mxGeometry relative="1" as="geometry" />
        </mxCell>
        <mxCell id="gWCB7NlJTMs1TYTA7h7S-55" value="Case&lt;br&gt;Manual mode" style="rhombus;whiteSpace=wrap;html=1;" vertex="1" parent="WIyWlLk6GJQsqaUBKTNV-1">
          <mxGeometry x="665" y="460" width="130" height="80" as="geometry" />
        </mxCell>
        <mxCell id="gWCB7NlJTMs1TYTA7h7S-60" style="edgeStyle=orthogonalEdgeStyle;rounded=0;orthogonalLoop=1;jettySize=auto;html=1;exitX=0.5;exitY=1;exitDx=0;exitDy=0;entryX=0.5;entryY=0;entryDx=0;entryDy=0;" edge="1" parent="WIyWlLk6GJQsqaUBKTNV-1" source="gWCB7NlJTMs1TYTA7h7S-56" target="gWCB7NlJTMs1TYTA7h7S-57">
          <mxGeometry relative="1" as="geometry" />
        </mxCell>
        <mxCell id="gWCB7NlJTMs1TYTA7h7S-65" style="edgeStyle=orthogonalEdgeStyle;rounded=0;orthogonalLoop=1;jettySize=auto;html=1;exitX=1;exitY=0.5;exitDx=0;exitDy=0;entryX=0;entryY=0.5;entryDx=0;entryDy=0;" edge="1" parent="WIyWlLk6GJQsqaUBKTNV-1" source="gWCB7NlJTMs1TYTA7h7S-56" target="gWCB7NlJTMs1TYTA7h7S-62">
          <mxGeometry relative="1" as="geometry" />
        </mxCell>
        <mxCell id="gWCB7NlJTMs1TYTA7h7S-56" value="Case&lt;br&gt;Auto mode" style="rhombus;whiteSpace=wrap;html=1;" vertex="1" parent="WIyWlLk6GJQsqaUBKTNV-1">
          <mxGeometry x="665" y="560" width="130" height="80" as="geometry" />
        </mxCell>
        <mxCell id="gWCB7NlJTMs1TYTA7h7S-66" style="edgeStyle=orthogonalEdgeStyle;rounded=0;orthogonalLoop=1;jettySize=auto;html=1;exitX=1;exitY=0.5;exitDx=0;exitDy=0;entryX=0;entryY=0.5;entryDx=0;entryDy=0;" edge="1" parent="WIyWlLk6GJQsqaUBKTNV-1" source="gWCB7NlJTMs1TYTA7h7S-57" target="gWCB7NlJTMs1TYTA7h7S-63">
          <mxGeometry relative="1" as="geometry" />
        </mxCell>
        <mxCell id="gWCB7NlJTMs1TYTA7h7S-57" value="Case&lt;br&gt;Set speed" style="rhombus;whiteSpace=wrap;html=1;" vertex="1" parent="WIyWlLk6GJQsqaUBKTNV-1">
          <mxGeometry x="665" y="660" width="130" height="80" as="geometry" />
        </mxCell>
        <mxCell id="gWCB7NlJTMs1TYTA7h7S-61" value="Chuyển sang mode manual" style="rounded=0;whiteSpace=wrap;html=1;" vertex="1" parent="WIyWlLk6GJQsqaUBKTNV-1">
          <mxGeometry x="820" y="470" width="100" height="60" as="geometry" />
        </mxCell>
        <mxCell id="gWCB7NlJTMs1TYTA7h7S-70" style="edgeStyle=orthogonalEdgeStyle;rounded=0;orthogonalLoop=1;jettySize=auto;html=1;exitX=1;exitY=0.5;exitDx=0;exitDy=0;" edge="1" parent="WIyWlLk6GJQsqaUBKTNV-1" source="gWCB7NlJTMs1TYTA7h7S-62">
          <mxGeometry relative="1" as="geometry">
            <mxPoint x="1010" y="599.8965517241381" as="targetPoint" />
          </mxGeometry>
        </mxCell>
        <mxCell id="gWCB7NlJTMs1TYTA7h7S-62" value="Chuyển sang mode auto" style="rounded=0;whiteSpace=wrap;html=1;" vertex="1" parent="WIyWlLk6GJQsqaUBKTNV-1">
          <mxGeometry x="820" y="570" width="100" height="60" as="geometry" />
        </mxCell>
        <mxCell id="gWCB7NlJTMs1TYTA7h7S-71" style="edgeStyle=orthogonalEdgeStyle;rounded=0;orthogonalLoop=1;jettySize=auto;html=1;exitX=1;exitY=0.5;exitDx=0;exitDy=0;" edge="1" parent="WIyWlLk6GJQsqaUBKTNV-1" source="gWCB7NlJTMs1TYTA7h7S-63">
          <mxGeometry relative="1" as="geometry">
            <mxPoint x="1010" y="699.8965517241381" as="targetPoint" />
          </mxGeometry>
        </mxCell>
        <mxCell id="gWCB7NlJTMs1TYTA7h7S-63" value="Nhận và thay đổi tốc độ cho xe" style="rounded=0;whiteSpace=wrap;html=1;" vertex="1" parent="WIyWlLk6GJQsqaUBKTNV-1">
          <mxGeometry x="820" y="670" width="100" height="60" as="geometry" />
        </mxCell>
        <mxCell id="gWCB7NlJTMs1TYTA7h7S-67" value="Trở lại chương trình chính từ ngắt" style="text;html=1;strokeColor=none;fillColor=none;align=center;verticalAlign=middle;whiteSpace=wrap;rounded=0;" vertex="1" parent="WIyWlLk6GJQsqaUBKTNV-1">
          <mxGeometry x="950" y="740" width="120" height="20" as="geometry" />
        </mxCell>
        <mxCell id="gWCB7NlJTMs1TYTA7h7S-69" value="" style="endArrow=classic;html=1;exitX=1;exitY=0.5;exitDx=0;exitDy=0;entryX=0.5;entryY=0;entryDx=0;entryDy=0;" edge="1" parent="WIyWlLk6GJQsqaUBKTNV-1" source="gWCB7NlJTMs1TYTA7h7S-61" target="gWCB7NlJTMs1TYTA7h7S-67">
          <mxGeometry width="50" height="50" relative="1" as="geometry">
            <mxPoint x="740" y="600" as="sourcePoint" />
            <mxPoint x="790" y="550" as="targetPoint" />
            <Array as="points">
              <mxPoint x="1010" y="500" />
              <mxPoint x="1010" y="560" />
              <mxPoint x="1010" y="640" />
            </Array>
          </mxGeometry>
        </mxCell>
        <mxCell id="gWCB7NlJTMs1TYTA7h7S-73" value="" style="rounded=0;whiteSpace=wrap;html=1;opacity=20;strokeWidth=10;perimeterSpacing=7;" vertex="1" parent="WIyWlLk6GJQsqaUBKTNV-1">
          <mxGeometry x="620" y="270" width="510" height="530" as="geometry" />
        </mxCell>
      </root>
    </mxGraphModel>
  </diagram>
</mxfile>
